name C:\Users\r0593348\3dpredictsim\Results\Batchsim_tmt_linear_v2\Pog_s1_tmt_aCst_d00_k250_ig24_act.mot
datacolumns 128
datarows 4
range 0.00000000 0.03085451
endheader
time	pelvis_tilt	pelvis_list	pelvis_rotation	pelvis_tx	pelvis_ty	pelvis_tz	hip_flexion_l	hip_adduction_l	hip_rotation_l	hip_flexion_r	hip_adduction_r	hip_rotation_r	knee_angle_l	knee_angle_r	ankle_angle_l	ankle_angle_r	subtalar_angle_l	subtalar_angle_r	tmt_angle_l	tmt_angle_r	mtp_angle_l	mtp_angle_r	lumbar_extension	lumbar_bending	lumbar_rotation	arm_flex_l	arm_add_l	arm_rot_l	arm_flex_r	arm_add_r	arm_rot_r	elbow_flex_l	elbow_flex_r	pro_sup_l	pro_sup_r	glut_med1_l/activation	glut_med2_l/activation	glut_med3_l/activation	glut_min1_l/activation	glut_min2_l/activation	glut_min3_l/activation	semimem_l/activation	semiten_l/activation	bifemlh_l/activation	bifemsh_l/activation	sar_l/activation	add_long_l/activation	add_brev_l/activation	add_mag1_l/activation	add_mag2_l/activation	add_mag3_l/activation	tfl_l/activation	pect_l/activation	grac_l/activation	glut_max1_l/activation	glut_max2_l/activation	glut_max3_l/activation	iliacus_l/activation	psoas_l/activation	quad_fem_l/activation	gem_l/activation	peri_l/activation	rect_fem_l/activation	vas_med_l/activation	vas_int_l/activation	vas_lat_l/activation	med_gas_l/activation	lat_gas_l/activation	soleus_l/activation	tib_post_l/activation	flex_dig_l/activation	flex_hal_l/activation	tib_ant_l/activation	per_brev_l/activation	per_long_l/activation	per_tert_l/activation	ext_dig_l/activation	ext_hal_l/activation	ercspn_l/activation	intobl_l/activation	extobl_l/activation	glut_med1_r/activation	glut_med2_r/activation	glut_med3_r/activation	glut_min1_r/activation	glut_min2_r/activation	glut_min3_r/activation	semimem_r/activation	semiten_r/activation	bifemlh_r/activation	bifemsh_r/activation	sar_r/activation	add_long_r/activation	add_brev_r/activation	add_mag1_r/activation	add_mag2_r/activation	add_mag3_r/activation	tfl_r/activation	pect_r/activation	grac_r/activation	glut_max1_r/activation	glut_max2_r/activation	glut_max3_r/activation	iliacus_r/activation	psoas_r/activation	quad_fem_r/activation	gem_r/activation	peri_r/activation	rect_fem_r/activation	vas_med_r/activation	vas_int_r/activation	vas_lat_r/activation	med_gas_r/activation	lat_gas_r/activation	soleus_r/activation	tib_post_r/activation	flex_dig_r/activation	flex_hal_r/activation	tib_ant_r/activation	per_brev_r/activation	per_long_r/activation	per_tert_r/activation	ext_dig_r/activation	ext_hal_r/activation	ercspn_r/activation	intobl_r/activation	extobl_r/activation	
          0.00000000	          1.23075151	          1.96523534	          4.91926336	          0.00000000	          0.89692892	         -0.00212900	        -10.82734999	          2.20681975	         -2.71742079	         23.59139352	         -2.03041469	         -5.12790319	        -25.09169177	        -16.88275042	        -43.53952409	        -22.72454409	        -13.67348261	         -0.44896516	          2.18057784	         -0.30362032	         45.94050182	         -1.34353248	         -0.00050677	         -3.54575737	         -0.84649193	          2.17776632	        -13.48848363	          7.59170242	        -18.03149662	        -13.44971049	         14.66351699	         23.32151599	         21.19633294	         86.51662706	         86.51662706	          0.18011118	          0.05000340	          0.05001911	          0.15285483	          0.05570167	          0.05857117	          0.08598213	          0.05000093	          0.05000218	          0.05000078	          0.05653684	          0.39563860	          0.23754898	          0.09097760	          0.05014423	          0.05000970	          0.07274165	          0.11023413	          0.06164002	          0.05001942	          0.05001288	          0.05003396	          0.21422593	          0.42612446	          0.34696115	          0.10102613	          0.07032857	          0.28167670	          0.09434422	          0.11106735	          0.10953641	          0.21548474	          0.13699335	          0.44019180	          0.11804925	          0.06266642	          0.07671013	          0.31909866	          0.25680801	          0.11759909	          0.69884883	          0.81248711	          0.22339046	          0.05000005	          0.05000038	          0.05562366	          0.06564609	          0.09406194	          0.05857088	          0.05000111	          0.05000174	          0.05000165	          0.14307157	          0.09414481	          0.16160953	          0.05000028	          0.06007944	          0.05000780	          0.10714342	          0.16921053	          0.18840313	          0.16182762	          0.05000059	          0.05000193	          0.08888439	          0.10292455	          0.15089084	          0.20218057	          0.07245512	          0.06573837	          0.07292327	          0.05014065	          0.09458734	          0.05000011	          0.12014607	          0.12226541	          0.10873614	          0.05857068	          0.05857067	          0.05857068	          0.05857060	          0.05000141	          0.05000193	          0.05524720	          0.11140504	          0.06610690	          0.36910400	          0.24690866	          0.09462560	          0.05000004	          0.14101224	          0.09414866	
          0.01028484	          1.25627189	          2.10957808	          4.87941980	          0.01595597	          0.89457397	         -0.00194515	        -10.73553760	          2.10185552	         -2.91918577	         23.06674316	         -1.92659593	         -4.92342425	        -26.63315925	        -17.28349423	        -44.35172338	        -21.43610134	        -13.02472042	         -1.20146000	          1.81343068	          0.11734500	         43.53636067	         -0.64763219	          0.17105985	         -3.37584636	         -0.92503985	          2.11698039	        -13.52172669	          7.83702301	        -18.99586567	        -13.45365351	         14.78837893	         23.40686205	         21.21164603	         86.51662706	         86.51662706	          0.15375542	          0.05000190	          0.05912359	          0.13048757	          0.05000305	          0.05000404	          0.12156762	          0.05000026	          0.05000042	          0.05000028	          0.06753492	          0.34681462	          0.25762622	          0.11330476	          0.05002616	          0.05000065	          0.06209810	          0.09412641	          0.05263313	          0.05009894	          0.05003151	          0.05003084	          0.18287814	          0.36376960	          0.29620124	          0.08624366	          0.06003762	          0.24045875	          0.10096868	          0.10600507	          0.09414979	          0.18398249	          0.11915109	          0.37577821	          0.10077502	          0.05349693	          0.06548516	          0.36549742	          0.21922998	          0.10039097	          0.82134449	          0.88875947	          0.34546130	          0.05000009	          0.05000005	          0.06126500	          0.09234622	          0.19226916	          0.05000034	          0.05857941	          0.05857117	          0.22759629	          0.12213581	          0.08036857	          0.13796110	          0.05857054	          0.05128869	          0.06861341	          0.09146521	          0.14444993	          0.16083407	          0.13814740	          0.05000136	          0.06866710	          0.07587829	          0.08786376	          0.12881102	          0.17259540	          0.06647306	          0.05611912	          0.06225249	          0.05000097	          0.33606477	          0.05000336	          0.24052770	          0.23080108	          0.20724574	          0.05000000	          0.05000001	          0.05000000	          0.05000013	          0.05000021	          0.05000008	          0.13303695	          0.09510308	          0.05643344	          0.33584647	          0.21077853	          0.22787604	          0.05000046	          0.12037786	          0.08037188	
          0.02056968	          1.28617738	          2.24927706	          4.80766954	          0.03195838	          0.89193131	         -0.00174885	        -10.51637621	          2.00898829	         -3.09721075	         22.37971597	         -1.78087911	         -4.70929377	        -28.42789789	        -18.21487991	        -44.82658137	        -19.66718219	        -12.35876070	         -2.04178405	          1.44591451	          0.99154868	         40.19493877	          0.99398025	          0.34526050	         -3.18706609	         -1.00147394	          2.04112642	        -13.56450081	          8.11259051	        -19.89724166	        -13.46311247	         14.89948954	         23.40913511	         21.13543399	         86.51662706	         86.51662706	          0.13125631	          0.05001884	          0.09397600	          0.11139335	          0.05000214	          0.05006491	          0.15755338	          0.05000473	          0.05857750	          0.05000066	          0.05765363	          0.29606571	          0.38661348	          0.20142346	          0.05590354	          0.15145111	          0.05301160	          0.08035360	          0.05856567	          0.05003217	          0.05002427	          0.05003021	          0.15611746	          0.31053904	          0.25770602	          0.10013778	          0.06864618	          0.20527225	          0.08619432	          0.11407927	          0.08037344	          0.16336960	          0.10945413	          0.32079032	          0.08602855	          0.05000397	          0.05590286	          0.39503858	          0.18715048	          0.08570093	          0.88719001	          0.93400736	          0.29490980	          0.05000004	          0.07906640	          0.08155643	          0.11278569	          0.17736731	          0.26628151	          0.05000767	          0.05000118	          0.19429327	          0.10426359	          0.06860821	          0.11777315	          0.05000012	          0.06564779	          0.05857327	          0.07808109	          0.12331255	          0.13729919	          0.11793224	          0.07872117	          0.05861961	          0.06477515	          0.07500862	          0.10996222	          0.14733942	          0.06861029	          0.06861032	          0.21029224	          0.08976675	          0.28688875	          0.08037082	          0.24751139	          0.25635439	          0.23588231	          0.19480665	          0.24141994	          0.14805944	          0.26661818	          0.36637588	          0.34386923	          0.11356955	          0.08118668	          0.06861102	          0.28670182	          0.17993515	          0.19453080	          0.05000002	          0.10276289	          0.06861105	
          0.03085451	          1.31680336	          2.37535325	          4.70706874	          0.04785352	          0.88921334	         -0.00153553	        -10.17448196	          1.91964503	         -3.24969973	         21.48246389	         -1.58539401	         -4.46306951	        -30.38790958	        -19.10354991	        -45.04430454	        -17.36332445	        -11.66616653	         -2.88602626	          1.00342160	          1.93206406	         35.92206131	          3.11089284	          0.51098480	         -2.97607589	         -1.07462489	          1.97273295	        -13.60845473	          8.42604187	        -20.70292059	        -13.47332191	         15.00644009	         23.31670434	         20.95696706	         86.51662706	         86.51662706	          0.11204954	          0.05000062	          0.08022457	          0.09509324	          0.05000555	          0.05000728	          0.18909347	          0.05000036	          0.05000646	          0.05000015	          0.05000100	          0.25274241	          0.34993458	          0.17195258	          0.10937378	          0.12928983	          0.05001079	          0.06859603	          0.05000107	          0.05002416	          0.05005635	          0.11027118	          0.13327270	          0.28115571	          0.21999587	          0.08548507	          0.05860158	          0.17523461	          0.09659462	          0.09738642	          0.06861272	          0.15664323	          0.09869882	          0.27384886	          0.07343995	          0.05000186	          0.05000043	          0.34354257	          0.15976486	          0.07316050	          0.81314067	          0.96085032	          0.58171058	          0.06319657	          0.06749659	          0.06962224	          0.16685300	          0.31962989	          0.44834882	          0.10023377	          0.23901021	          0.39195427	          0.08900664	          0.05856959	          0.10053933	          0.07604549	          0.06861090	          0.05000234	          0.06665549	          0.10526822	          0.11720821	          0.10067525	          0.06720210	          0.05004264	          0.05530197	          0.18879657	          0.13374218	          0.12577922	          0.05857066	          0.05857063	          0.17952477	          0.18012636	          0.40193453	          0.06861012	          0.21129295	          0.21884199	          0.20136559	          0.16630052	          0.20609283	          0.12641394	          0.29195542	          0.42666824	          0.35028416	          0.09695083	          0.06930660	          0.05857114	          0.24474854	          0.15360510	          0.16606504	          0.05000003	          0.08772552	          0.05857117	
